# xmcd CD database file
#
# Track frame offsets:
#	150
#	14056
#	30532
#	35745
#	50190
#	64307
#	72032
#	82723
#	92184
#	102074
#	112134
#	126367
#	139399
#
# Disc length: 2055 seconds
#
# Revision: 0
# Processed by: cddbd v1.5.1PL0 Copyright (c) Steve Scherf et al.
# Submitted via: CDex 1.51
#
DISCID=be08050d
DTITLE=Shitkickers - Gunfighter Ballads and Drinking Songs
DYEAR=2003
DGENRE=Country
TTITLE0=Swamp Scat
TTITLE1=Outlaw
TTITLE2=Front Porch
TTITLE3=Jailhouse
TTITLE4=Hellfire
TTITLE5=Along the Way
TTITLE6=Two New Chickens
TTITLE7=Trusty Steed
TTITLE8=Good Ol' Boys
TTITLE9=Whiskey
TTITLE10=Enough
TTITLE11=Voodoo
TTITLE12=Take Me Away
EXTD=YEAR: 2003
EXTT0=
EXTT1=
EXTT2=
EXTT3=
EXTT4=
EXTT5=
EXTT6=
EXTT7=
EXTT8=
EXTT9=
EXTT10=
EXTT11=
EXTT12=
PLAYORDER=
